<svg width="88" height="66" viewBox="0 0 88 66" fill="none" xmlns="http://www.w3.org/2000/svg">
<path fill-rule="evenodd" clip-rule="evenodd" d="M51.6762 35.0262C55.4018 37.9609 61.9449 44.6522 55.9582 48.807C52.1484 51.4501 45.5459 51.6399 42.0538 48.3015C37.6772 44.1173 41.2959 38.3606 44.8963 35.1695C45.9324 34.2505 47.0483 33.4129 48.2155 32.6358C49.4128 33.3665 50.5731 34.1573 51.6762 35.0262ZM80.4384 20.7687C69.724 20.8652 58.1637 23.4782 48.7179 29.0017C46.5472 27.8273 44.402 26.8791 42.5511 26.1794C31.7981 22.1154 18.4307 21.1678 7.25042 23.9884C6.02873 24.297 5.92011 25.8184 6.61963 26.5821C6.18192 26.2037 5.74874 25.8198 5.32012 25.4304C6.3804 24.3537 7.57575 23.4777 8.97454 22.7638C9.82945 22.3278 10.8615 22.1109 11.6679 21.6171C12.1484 21.3231 12.0553 20.9325 12.6224 20.6834C12.8033 20.604 12.8423 20.3149 12.6108 20.2654C11.9768 20.1304 11.6863 19.6662 11.0465 19.5578C10.0388 19.3866 8.35693 19.9673 7.44697 20.3122C5.18071 21.1713 3.22511 22.6141 1.57396 24.3685C0.884566 25.1015 1.02733 26.1553 1.6654 26.8547C3.22935 28.5695 5.03681 30.0626 6.91546 31.419C8.54338 32.5937 10.3168 34.0335 12.3177 34.4141C13.8863 34.7134 14.8781 32.8654 13.7611 31.7221C12.3984 30.3266 10.448 29.5327 8.86615 28.3848C8.18787 27.8928 7.5442 27.3668 6.91133 26.8286C7.13846 26.9664 7.41356 27.0413 7.73493 27.0182C18.1179 26.2691 27.9656 25.2779 38.1601 28.2522C40.6643 28.9817 43.1164 29.9298 45.4531 31.1031C45.2571 31.2402 45.0535 31.3699 44.8585 31.5102C38.4588 36.1345 32.6847 46.2177 41.4243 51.8736C47.627 55.889 61.392 54.2338 61.6527 44.941C61.8195 39.0036 56.9676 34.1267 51.5245 30.6534C54.5005 29.0441 57.6619 27.7225 60.6924 26.4948C67.0093 23.9347 73.7249 22.2682 80.4485 21.2023C80.7151 21.1598 80.7266 20.7659 80.4384 20.7687Z" fill="black"/>
</svg>
