<svg width="89" height="86" viewBox="0 0 89 86" fill="none" xmlns="http://www.w3.org/2000/svg">
<path fill-rule="evenodd" clip-rule="evenodd" d="M41.8065 35.1678C42.2756 30.4483 44.3952 21.3328 51.1185 24.1436C55.3964 25.9327 59.1088 31.3958 58.1739 36.1357C57.0018 42.0761 50.2024 42.1232 45.5754 40.8055C44.2432 40.4266 42.9368 39.9367 41.6537 39.371C41.6254 37.9686 41.6677 36.565 41.8065 35.1678ZM14.3137 18.5946C20.16 27.574 28.5827 35.9122 38.3208 40.9022C38.4989 43.3638 38.8539 45.6823 39.26 47.6189C41.6201 58.8694 48.0138 70.6467 56.4069 78.553C57.3244 79.4167 58.6653 78.6897 58.9326 77.6891C58.8492 78.2617 58.7586 78.8334 58.661 79.4042C57.183 79.0898 55.8014 78.5536 54.447 77.7587C53.6195 77.2726 52.8814 76.5194 52.0313 76.1053C51.525 75.8586 51.2458 76.1472 50.7307 75.8032C50.5664 75.6934 50.3018 75.8161 50.3846 76.0379C50.612 76.6449 50.377 77.1395 50.6298 77.7371C51.0278 78.6787 52.4221 79.7839 53.2025 80.3653C55.146 81.8133 57.4144 82.6854 59.7816 83.1332C60.7704 83.3199 61.5818 82.6326 61.828 81.7184C62.432 79.4775 62.718 77.1506 62.8504 74.8373C62.9647 72.833 63.2241 70.5634 62.4684 68.6721C61.8766 67.1889 59.7854 67.3472 59.4226 68.9039C58.9796 70.8034 59.3598 72.8745 59.2434 74.8256C59.1936 75.662 59.0966 76.4876 58.9835 77.3106C58.9773 77.0451 58.8925 76.7728 58.7001 76.5144C52.482 68.1656 46.3479 60.3982 43.3698 50.2048C42.6373 47.7015 42.117 45.1244 41.8488 42.5235C42.0697 42.6149 42.2887 42.7168 42.5118 42.8057C49.8531 45.7119 61.4591 45.1536 61.5241 34.7437C61.5713 27.3549 52.7698 16.6429 44.7965 21.4232C39.7021 24.4773 38.2019 31.191 38.2029 37.6478C35.2452 36.0052 32.4301 34.0516 29.7648 32.1577C24.208 28.2107 19.1899 23.4467 14.6738 18.3528C14.4945 18.151 14.1563 18.3532 14.3137 18.5946Z" fill="black"/>
</svg>
