<svg width="53" height="83" viewBox="0 0 53 83" fill="none" xmlns="http://www.w3.org/2000/svg">
<path fill-rule="evenodd" clip-rule="evenodd" d="M30.0676 34.245C33.6854 31.1782 41.5455 26.0984 44.4251 32.7925C46.2567 37.0523 45.1282 43.5603 41.1613 46.3179C36.1895 49.7738 31.2686 45.0813 28.8582 40.9177C28.1639 39.7193 27.5652 38.459 27.036 37.1604C27.9905 36.1326 28.9966 35.153 30.0676 34.245ZM21.8231 3.21996C19.7844 13.7391 20.0434 25.5881 23.5756 35.9446C21.9926 37.838 20.6362 39.7515 19.5819 41.426C13.4584 51.1546 9.86827 64.0656 10.4063 75.5836C10.4655 76.8423 11.9349 77.2517 12.8225 76.7182C12.3645 77.0718 11.9021 77.4199 11.4351 77.7624C10.5911 76.509 9.9706 75.1631 9.5495 73.6502C9.29249 72.7256 9.28539 71.671 8.96208 70.7824C8.76964 70.2531 8.36828 70.2665 8.2371 69.6612C8.19529 69.4681 7.91976 69.3723 7.82517 69.5894C7.56667 70.1838 7.05391 70.376 6.8203 70.9814C6.45189 71.9349 6.68604 73.6987 6.84291 74.6591C7.23358 77.051 8.25809 79.2547 9.64866 81.2221C10.2297 82.0437 11.2908 82.1136 12.1033 81.6275C14.0952 80.4363 15.9182 78.9623 17.6214 77.3914C19.0967 76.0299 20.8609 74.5786 21.6322 72.6936C22.2378 71.216 20.6243 69.8762 19.2815 70.7431C17.6427 71.8007 16.4763 73.5539 15.0365 74.8756C14.4192 75.4423 13.7756 75.9684 13.1222 76.4815C13.3024 76.2863 13.4306 76.0316 13.4719 75.7121C14.8051 65.3879 15.7945 55.54 20.739 46.1418C21.9525 43.833 23.3698 41.6187 24.9849 39.5624C25.0802 39.7817 25.1668 40.0072 25.2654 40.2262C28.5229 47.4185 37.2546 55.0845 44.5374 47.646C49.7073 42.367 50.826 28.5481 41.7711 26.4423C35.9858 25.0968 30.2406 28.8805 25.753 33.523C24.7685 30.2862 24.1028 26.9249 23.5031 23.7107C22.2519 17.0106 21.9559 10.0976 22.25 3.29637C22.2615 3.02668 21.8777 2.93697 21.8231 3.21996Z" fill="black"/>
</svg>
