<svg width="89" height="86" viewBox="0 0 89 86" fill="none" xmlns="http://www.w3.org/2000/svg">
<path fill-rule="evenodd" clip-rule="evenodd" d="M42.2564 35.1678C42.7255 30.4483 44.845 21.3328 51.5684 24.1436C55.8462 25.9327 59.5587 31.3958 58.6237 36.1357C57.4516 42.0761 50.6522 42.1232 46.0252 40.8055C44.693 40.4266 43.3866 39.9367 42.1035 39.371C42.0752 37.9686 42.1176 36.565 42.2564 35.1678ZM14.7635 18.5946C20.6098 27.574 29.0325 35.9122 38.7707 40.9022C38.9487 43.3638 39.3037 45.6823 39.7098 47.6189C42.07 58.8694 48.4636 70.6467 56.8567 78.553C57.7742 79.4167 59.1151 78.6897 59.3824 77.6891C59.299 78.2617 59.2085 78.8334 59.1108 79.4042C57.6328 79.0898 56.2512 78.5536 54.8968 77.7587C54.0694 77.2726 53.3312 76.5194 52.4811 76.1053C51.9748 75.8586 51.6956 76.1472 51.1805 75.8032C51.0163 75.6934 50.7516 75.8161 50.8345 76.0379C51.0618 76.6449 50.8268 77.1395 51.0797 77.7371C51.4776 78.6787 52.872 79.7839 53.6523 80.3653C55.5958 81.8133 57.8642 82.6854 60.2314 83.1332C61.2202 83.3199 62.0316 82.6326 62.2779 81.7184C62.8818 79.4775 63.1678 77.1506 63.3003 74.8373C63.4145 72.833 63.674 70.5634 62.9182 68.6721C62.3264 67.1889 60.2352 67.3472 59.8724 68.9039C59.4294 70.8034 59.8096 72.8745 59.6932 74.8256C59.6434 75.662 59.5464 76.4876 59.4333 77.3106C59.4272 77.0451 59.3423 76.7728 59.1499 76.5144C52.9318 68.1656 46.7978 60.3982 43.8196 50.2048C43.0871 47.7015 42.5668 45.1244 42.2986 42.5235C42.5196 42.6149 42.7385 42.7168 42.9616 42.8057C50.3029 45.7119 61.9089 45.1536 61.974 34.7437C62.0211 27.3549 53.2196 16.6429 45.2464 21.4232C40.1519 24.4773 38.6518 31.191 38.6528 37.6478C35.695 36.0052 32.88 34.0516 30.2146 32.1577C24.6578 28.2107 19.6398 23.4467 15.1236 18.3528C14.9443 18.151 14.6061 18.3532 14.7635 18.5946Z" fill="black"/>
</svg>
