<svg width="23" height="24" viewBox="0 0 23 24" fill="none" xmlns="http://www.w3.org/2000/svg">
<path fill-rule="evenodd" clip-rule="evenodd" d="M8.04996 2.49994L5.54996 4.99994L4.04992 8.00013L1.54804 14.4998C1.54804 14.4998 3.1498 14.5899 3.79222 14.817C4.43464 15.044 7.54804 18.9998 7.54804 18.9998L8.06256 20.4998L7.52645 22.1121L8.06256 23.0868C8.06256 23.0868 8.26612 22.3553 8.92228 21.7251C9.57843 21.0948 11.0636 20.009 11.0636 20.009C11.0636 20.009 10.5916 20.3474 10.548 19.9998C9.64366 19.9998 9.62057 17.185 10.548 16.4998C11.4755 15.8147 16.6018 14.3328 16.6018 14.3328L18.548 8.49985L20.548 1.99985L19.048 1.99985L17.048 1.99985L14.0481 2.00007L8.04996 2.49994Z" fill="#FFC9F0"/>
</svg>
