<svg width="68" height="67" viewBox="0 0 68 67" fill="none" xmlns="http://www.w3.org/2000/svg">
<path d="M36.9494 59.383C37.1612 59.9456 37.7295 60.2912 38.3265 60.2205C38.9235 60.1497 39.3953 59.6809 39.4697 59.0843C40.2655 52.7063 45.6029 38.208 60.4512 31.7446C61.0188 31.4976 61.3352 30.8862 61.2092 30.2801C61.0832 29.674 60.5493 29.2395 59.9302 29.2391C52.5399 29.2348 46.4866 25.8134 41.8772 21.4349C37.2577 17.0468 34.1735 11.7721 32.7644 8.29809C32.541 7.74735 31.9742 7.41664 31.3848 7.49319C30.7955 7.56974 30.3319 8.03426 30.2566 8.62379C27.9796 26.4534 15.3138 34.2494 9.44117 35.9078C8.82634 36.0814 8.42711 36.6741 8.49721 37.3091C8.56731 37.9441 9.08618 38.4354 9.72409 38.4707C16.2673 38.8332 30.9814 43.5309 36.9494 59.383Z" fill="#B3B3B3"/>
<path d="M27.7097 6.77859C27.7833 6.53611 27.9938 6.35394 28.2517 6.32045C28.5462 6.28241 28.8292 6.44807 28.9408 6.72329C30.3804 10.2724 33.514 15.6282 38.2092 20.0883C42.8993 24.5435 49.1056 28.0671 56.712 28.0715C57.0214 28.0717 57.2881 28.2895 57.3512 28.5924C57.4142 28.8953 57.2565 29.2013 56.9729 29.3249C42.3165 35.7048 36.7653 49.7481 35.693 56.548L35.6035 57.1832C35.5661 57.4812 35.3302 57.715 35.032 57.7504C34.7335 57.7858 34.4495 57.6134 34.3436 57.3321L34.051 56.5823C27.9863 41.5058 14.066 36.6691 7.19485 36.0452L6.54219 35.9977C6.22341 35.9799 5.96428 35.7343 5.92918 35.4169C5.89414 35.0995 6.09361 34.8035 6.4009 34.7166C12.4724 33.002 25.3709 25.0265 27.6876 6.88597L27.7097 6.77859Z" fill="#FC75FF" stroke="black" stroke-width="1.30707" stroke-linejoin="round"/>
<path d="M42.6302 30.9443C36.1356 34.9156 33.6874 41.9019 33.0039 45.1433C30.8366 40.9969 25.2771 34.4003 20.3448 33.7335C22.3099 33.0755 27.3092 27.0547 29.6562 19.6218C33.907 27.1239 39.9426 30.2201 42.6302 30.9443Z" fill="white" stroke="black" stroke-width="1.30707" stroke-linecap="round" stroke-linejoin="round"/>
</svg>
