<svg width="53" height="58" viewBox="0 0 53 58" fill="none" xmlns="http://www.w3.org/2000/svg">
<path d="M4.42066 56.2423C4.39447 56.6995 4.59487 57.1405 4.9566 57.4215C5.31833 57.7025 5.79512 57.7876 6.23173 57.6491L22.69 52.4293C22.965 52.3421 23.2062 52.1716 23.3801 51.9413L50.109 16.554C50.4034 16.1643 50.472 15.6488 50.2899 15.1956C48.5431 10.8488 45.1928 7.65924 41.6357 5.60194C38.0983 3.55594 34.2123 2.54655 31.2356 2.70255C30.8091 2.7249 30.4165 2.94171 30.1705 3.29075L5.67378 38.0381C5.52389 38.2508 5.43655 38.5011 5.42168 38.7608L4.42066 56.2423Z" fill="#B3B3B3"/>
<path d="M28.3465 0.762457C31.1601 0.615025 34.9135 1.57498 38.3616 3.5693C41.8195 5.56929 45.0434 8.65202 46.7186 12.8204C46.8093 13.0468 46.7749 13.3042 46.628 13.4989L19.8985 48.8868C19.8116 49.0016 19.6915 49.0871 19.5543 49.1307L3.09592 54.3498C2.87769 54.419 2.6391 54.3769 2.45826 54.2365C2.27751 54.0961 2.17681 53.8757 2.18974 53.6472L3.19124 36.1656L3.20378 36.0691C3.22271 35.9742 3.26084 35.8837 3.31702 35.804L27.8143 1.05634L27.8628 0.994142C27.9858 0.856265 28.1599 0.772238 28.3465 0.762457Z" fill="white" stroke="black" stroke-width="1.39241" stroke-linejoin="round"/>
<path d="M28.3831 1.45778L3.88638 36.2052C6.98667 36.6091 14.4185 39.627 19.3436 48.4668L46.0725 13.0796C42.8657 5.09959 33.6843 1.17995 28.3831 1.45778Z" fill="#FF5757"/>
<path d="M24.2342 6.62197C29.28 6.49439 33.3579 8.474 36.3878 10.9743C39.4085 13.467 41.4159 16.4991 42.3496 18.5604C42.4548 18.7926 42.425 19.0641 42.2713 19.2676L19.8992 48.8863C19.7567 49.0748 19.5283 49.1788 19.2926 49.1615C19.0569 49.1442 18.8463 49.008 18.7329 48.8007C14.066 40.2657 6.74939 37.3108 3.78952 36.8946C3.54933 36.8608 3.34406 36.7045 3.24765 36.4819C3.15129 36.2593 3.17801 36.0028 3.31776 35.8045L23.6824 6.91687L23.7338 6.85257C23.8609 6.71127 24.0418 6.62683 24.2342 6.62197Z" fill="#F8D044" stroke="black" stroke-width="1.39241" stroke-linejoin="round"/>
<path d="M3.38565 44.9461L2.88514 53.6868L11.1143 51.0769C8.41097 47.3842 4.83548 45.4511 3.38565 44.9461Z" fill="black"/>
<path d="M17.5219 46.1224L40.4562 15.6506" stroke="black" stroke-width="1.39241" stroke-linecap="round" stroke-linejoin="round"/>
<path d="M9.98769 39.5453L31.4798 8.26689" stroke="black" stroke-width="1.39241" stroke-linecap="round" stroke-linejoin="round"/>
</svg>
