<svg width="123" height="117" viewBox="0 0 123 117" fill="none" xmlns="http://www.w3.org/2000/svg">
<mask id="mask0_1_2428" style="mask-type:alpha" maskUnits="userSpaceOnUse" x="0" y="0" width="122" height="116">
<rect x="0.731598" y="14.5556" width="109" height="102" transform="rotate(-7.35424 0.731598 14.5556)" fill="#D9D9D9"/>
</mask>
<g mask="url(#mask0_1_2428)">
<path fill-rule="evenodd" clip-rule="evenodd" d="M96.6546 77.1218C95.2112 73.5157 94.1224 72.0483 92.2463 70.9723C90.4914 69.9659 88.0267 69.2485 84.5263 68.9439C80.9004 68.7817 80.562 66.9521 79.2907 64.1053C78.9165 63.2485 77.6006 63.1775 77.1287 63.8908C77.0396 63.8165 76.9481 63.7497 76.8546 63.6908C76.8754 63.2564 76.0999 62.1192 76.0682 61.7104C75.7367 57.4433 74.075 55.4934 70.5113 55.1488C69.7363 55.0738 64.6098 55.6324 63.902 55.9301C60.8076 57.2313 58.0122 60.4553 58.9335 63.7855C58.0961 65.2316 57.2139 66.1621 55.7146 66.7867C53.3343 67.4063 58.9741 101.528 65.8277 121.522C68.7683 130.101 109.952 109.538 107.434 105.377C107.606 104.532 106.988 103.708 107.107 102.843C107.194 102.218 107.583 101.913 107.717 101.287C107.907 100.406 107.437 99.3181 106.99 98.5019C106.797 98.0913 107.129 97.5797 107.181 97.1285C107.43 95.0001 106.273 95.3341 105.245 94.0655C105.257 94.0596 105.351 93.047 105.351 93.0521C105.39 92.3327 104.948 91.4748 104.588 90.9251C104.344 90.5535 103.9 90.3586 103.496 90.457C103.728 89.0042 104.099 87.7724 104.486 86.3517C105.171 83.847 105.793 81.2389 106.94 78.9038C107.409 77.9477 106.834 77.1982 105.882 77.26C102.802 77.4602 99.7245 77.4104 96.6546 77.1218Z" fill="white"/>
<path fill-rule="evenodd" clip-rule="evenodd" d="M58.8098 66.4683L81.4516 67.4961L92.2472 70.9718L94.0738 72.0372L86.4744 90.7236L71.6276 95.4598L69.0524 106.02L71.3067 117.259L95.6612 111.117L106.167 108.473L109.982 118.273L110.066 122.497L109.68 124.694L84.151 135.248C84.151 135.248 70.5136 135.681 68.126 135.989C65.7384 136.297 48.4572 140.295 48.4572 140.295L44.351 140.385C44.351 140.385 34.1709 132.098 32.3472 128.916C30.5236 125.734 24.8811 105.691 24.8811 105.691L24.8069 102.509L29.978 81.588C29.978 81.588 30.8907 80.5158 31.9878 78.7492C33.085 76.9827 58.8098 66.4683 58.8098 66.4683Z" fill="#9DDADB"/>
<path fill-rule="evenodd" clip-rule="evenodd" d="M102.594 90.0748C100.606 90.4347 98.6646 91.1689 96.9659 92.2643C96.2709 92.713 95.6657 93.3095 95.5775 94.1736C95.5335 94.6147 95.6149 95.0542 95.7236 95.48C95.8057 95.8025 95.8697 96.2195 96.183 96.4046C96.2364 96.4358 96.292 96.4578 96.3488 96.4718C95.72 96.8593 95.1309 97.3034 94.614 97.7493C94.1416 98.1569 93.6786 98.7508 93.5167 99.3742C93.4881 99.3094 93.4601 99.2492 93.4326 99.1921C92.8715 98.0438 92.1188 97.1413 91.0479 96.6073C90.8834 96.2139 89.4558 94.6137 88.3487 94.8239C87.1362 95.0534 86.1651 95.2695 85.1327 95.9738C84.7289 96.017 84.3278 96.0744 83.9329 96.1433C83.8647 96.1543 83.88 96.2467 83.9461 96.2459C84.2736 96.2453 84.6017 96.2488 84.9308 96.2602C85.7126 96.284 86.4963 96.3409 87.2683 96.4376C88.1945 96.5538 89.1516 96.6669 90.0415 96.9638C91.7675 97.5412 93.0385 99.4685 93.0632 101.285C93.0669 101.583 93.0677 102.485 92.6485 102.446C92.2943 102.413 92.0648 101.712 91.9101 101.462C91.4967 100.797 90.8567 100.411 90.12 100.188C89.2548 99.9265 88.3475 99.7911 87.4625 99.6115C86.9613 99.509 86.46 99.4064 85.9578 99.3052C85.4438 99.2 84.9458 99.0274 84.4368 99.2131C84.1293 99.3258 84.1416 99.7079 84.3472 99.9014C84.6602 100.196 85.0744 100.242 85.4815 100.327C86.0189 100.44 86.5552 100.552 87.0914 100.665C87.9204 100.838 88.7816 100.964 89.5987 101.202L89.5817 101.26C89.5164 101.25 89.4506 101.323 89.4728 101.398C89.6808 102.098 89.9485 102.902 89.8619 103.641C89.794 104.226 89.3772 104.918 88.709 104.835C88.7986 104.729 88.8155 104.564 88.728 104.425C88.4012 103.911 84.7674 102.183 84.5718 103.024C84.5656 103.054 84.5991 103.071 84.6229 103.064C84.871 102.978 85.3542 103.357 85.5761 103.469C85.8964 103.63 86.2206 103.785 86.5384 103.952C86.8861 104.134 87.2275 104.327 87.5622 104.53C87.8251 104.689 88.0305 104.863 88.3165 104.924C88.1819 105.011 88.0845 105.152 88.057 105.321C87.988 105.76 87.7959 106.149 87.4061 106.389C86.9974 106.639 86.4927 106.58 86.042 106.686C85.4276 106.829 84.9228 107.195 84.5238 107.677C83.6862 108.689 83.4106 110.318 82.1327 110.91C81.3694 111.263 80.4661 111.219 79.6458 111.21C78.7299 111.199 77.8407 111.212 76.9517 111.461C76.1007 111.7 75.3194 112.106 74.5743 112.575C73.8758 113.014 73.1049 113.508 72.5121 114.105C72.3224 113.704 72.1321 113.308 71.9731 112.895C71.5979 111.916 71.3327 110.905 71.1667 109.872C71.0096 108.888 70.9367 107.889 70.8946 106.894C70.8733 106.398 70.8764 105.9 70.855 105.404C70.8499 105.279 70.855 105.143 70.8545 105.009C71.9414 104.163 73.1087 103.471 74.284 102.763C74.2873 102.762 74.2903 102.759 74.2935 102.757C74.3298 102.735 74.3652 102.713 74.4017 102.692C74.4003 102.69 74.3989 102.688 74.3964 102.686C74.5276 102.58 74.6119 102.451 74.6547 102.314C76.2966 100.891 77.5877 99.0717 78.4621 97.0311C78.8286 96.176 79.1735 95.2933 79.6973 94.5178C80.2548 93.6907 80.9736 93.1491 81.9042 92.7956C82.9918 92.3816 84.1276 92.0711 85.2658 91.831C85.8873 91.7004 86.5791 91.5325 87.2639 91.4476C87.7411 91.3893 88.2131 91.3699 88.6567 91.4327C89.3138 91.5251 89.7468 91.9597 90.2082 92.3959C90.6493 92.8148 91.0884 93.235 91.5068 93.677C91.9029 94.0958 92.2825 94.5327 92.6231 94.9981C92.8274 95.2769 93.0207 95.5663 93.191 95.8684C93.2508 95.9753 93.3269 96.0955 93.3696 96.2089C93.4124 96.3234 93.3777 96.4548 93.5102 96.4377C92.9649 96.5158 92.7776 97.9249 93.3164 97.8228C94.0742 97.6799 94.3398 96.7151 94.0855 95.9224C93.6316 94.5081 91.9645 92.9444 91.6316 92.6105C90.8957 91.873 90.1079 90.8886 89.05 90.638C89.035 90.6343 89.0188 90.6309 89.0039 90.6282C89.2616 90.3122 89.4503 89.9491 89.6284 89.5816C89.8118 89.2034 90.0328 88.7687 90.0545 88.3451C90.0679 88.0753 89.7208 87.9674 89.5949 88.2182C89.4121 88.584 89.3579 89.0241 89.2367 89.4157C89.113 89.813 88.949 90.1944 88.8323 90.5943C88.4181 90.5232 87.9804 90.5226 87.5399 90.5604C87.9962 89.7407 88.7545 88.1752 88.8443 87.9751C89.2566 87.0489 89.6402 86.0997 90.0014 85.152C90.3917 84.1255 90.7031 83.0687 91.07 82.034C91.2781 81.4474 91.4879 80.8558 91.7291 80.2817C91.8125 80.0846 91.9036 79.8866 92.0123 79.7032C92.0334 79.6669 92.0619 79.6352 92.0877 79.6003C92.1195 79.5771 92.1521 79.5516 92.1705 79.5381C92.336 79.4124 92.3682 79.1659 92.4744 78.9984C92.6439 78.7286 92.8764 78.6695 93.1783 78.627C93.8219 78.5372 94.472 78.4791 95.1177 78.4137C96.0669 78.3182 97.0164 78.2338 97.9676 78.1615C98.2554 78.14 98.5421 78.1187 98.8302 78.0995C100.215 78.004 101.602 77.9337 102.988 77.8884C104.215 77.8478 105.451 77.8802 106.676 77.8141C105.537 81.9274 104.21 85.9931 102.626 89.9563C102.61 89.9965 102.599 90.036 102.594 90.0748ZM94.7798 101.302C94.5306 101.458 94.293 101.642 94.0757 101.845C94.0808 101.572 94.0543 101.288 94.0066 101.006C94.2315 101.192 94.4999 101.281 94.7798 101.302ZM105.22 93.1317C105.202 93.1362 105.185 93.1484 105.179 93.1683C104.91 93.9716 105.172 94.796 105.847 95.3115C106.2 95.58 106.929 95.8406 106.972 96.3511C107.006 96.7641 106.604 97.1661 106.457 97.5296C106.32 97.8681 106.298 98.2232 106.485 98.5471C106.723 98.9616 107.255 99.0703 107.485 99.4783C107.776 99.996 107.502 100.701 107.312 101.209C107.135 101.68 106.889 102.159 106.748 102.651C105.493 103.521 102.604 105.18 102.245 105.298C101.808 105.443 101.37 105.584 100.93 105.719C100.085 105.981 99.2364 106.231 98.3837 106.466C97.8982 106.599 97.4116 106.732 96.923 106.85C96.4964 106.952 96.0167 107.078 95.6259 106.797C94.838 106.23 95.0897 105.077 95.4487 104.355C95.4559 104.341 95.4543 104.329 95.4495 104.318C95.8562 104.166 96.2597 103.997 96.6665 103.862C97.4489 103.604 98.2399 103.37 99.0339 103.15C100.665 102.698 102.318 102.325 103.969 101.952C104.377 101.858 104.298 101.207 103.884 101.3C101.512 101.829 99.1269 102.349 96.8182 103.117C96.2393 103.308 95.6666 103.515 95.0997 103.737C94.8315 103.841 94.5484 103.987 94.2586 104.027C94.241 104.03 94.2232 104.032 94.2055 104.033C93.6349 104.089 93.4893 103.613 93.7493 103.167C93.7815 103.113 93.8148 103.058 93.8496 103.005C94.3165 102.276 94.9472 101.748 95.5971 101.202C96.3767 100.992 97.137 100.649 97.8911 100.372C99.7528 99.6874 101.615 99.0028 103.477 98.3191C103.843 98.1845 103.608 97.6268 103.243 97.7604C101.828 98.2785 100.414 98.7964 99 99.3144L96.9303 100.073C96.5167 100.224 96.0095 100.486 95.5175 100.62C95.2748 100.686 95.0358 100.721 94.813 100.699C94.093 100.623 93.945 99.7548 94.1794 99.1972C94.4419 98.571 95.0328 98.1243 95.5563 97.7213C96.4635 97.0219 97.4544 96.4755 98.4129 95.8693C98.5888 95.8062 98.7647 95.7431 98.9405 95.68C99.9635 95.3124 101.152 95.0435 102.088 94.4908C102.369 94.3265 102.146 93.8795 101.853 93.924C101.086 94.04 100.317 94.4174 99.5863 94.6766C98.7958 94.9582 98.0039 95.2388 97.2132 95.5192C97.1338 95.5474 96.6704 95.7643 96.5931 95.7395C96.5439 95.7234 96.5066 95.5646 96.4774 95.4605C96.3827 95.1182 96.2991 94.7566 96.308 94.3996C96.3259 93.5996 96.9328 93.1465 97.5561 92.7597C98.944 91.8995 100.507 91.2716 102.094 90.896C102.46 90.8096 102.828 90.7375 103.199 90.6771C103.635 90.6074 103.986 90.4835 104.264 90.8864C104.7 91.5212 105.005 92.3706 105.22 93.1317ZM106.354 118.044C105.889 116.975 105.823 115.777 105.457 114.672C105.268 114.102 105.038 113.542 104.795 112.993C104.599 112.55 104.308 112.089 104.22 111.611C104.214 111.579 104.25 111.555 104.278 111.567C104.764 111.768 105.185 112.284 105.5 112.691C105.878 113.178 106.185 113.7 106.451 114.255C106.98 115.362 107.472 116.716 107.132 117.944C107.031 118.31 106.528 118.445 106.354 118.044ZM94.9014 128.074C94.3795 127.802 93.9704 127.38 93.5112 127.02C93.0596 126.666 93.6032 125.961 94.0549 126.315C94.4467 126.622 94.8042 127.022 95.2486 127.254C95.4624 127.365 95.5852 127.601 95.485 127.838C95.3964 128.046 95.1147 128.185 94.9014 128.074ZM90.5743 115.579C91.3995 115.088 92.2059 114.565 93.0854 114.175C93.6111 113.942 93.9525 114.764 93.4301 114.996C92.62 115.356 91.8782 115.832 91.1183 116.283C90.6304 116.573 90.0832 115.87 90.5743 115.579ZM81.3105 116.505C81.0287 116.005 81.8539 115.668 82.1316 116.16C82.4513 116.727 82.8044 117.275 83.1241 117.842C83.4057 118.341 82.5807 118.679 82.3031 118.186C81.9834 117.619 81.6301 117.072 81.3105 116.505ZM73.5598 128.212C73.442 128.42 73.2179 128.553 72.9763 128.448C72.7739 128.36 72.6206 128.075 72.74 127.865C73.0884 127.249 73.4432 126.64 73.8719 126.077C74.2194 125.62 74.924 126.164 74.5768 126.62C74.1939 127.124 73.8711 127.662 73.5598 128.212ZM64.6311 69.2928C65.0721 69.5172 65.4705 69.8077 65.8614 70.109C66.3158 70.4593 65.7719 71.1641 65.3175 70.8138C64.9882 70.5599 64.6558 70.3019 64.2839 70.1127C64.069 70.0033 63.948 69.7639 64.0476 69.5291C64.1368 69.3188 64.4168 69.1838 64.6311 69.2928ZM79.7184 81.79C79.5485 82.2783 79.4003 82.7547 79.4546 83.2778C79.514 83.8476 78.6311 83.9619 78.5718 83.3917C78.5006 82.7072 78.6759 82.0829 78.8985 81.4427C79.0869 80.9008 79.9059 81.2503 79.7184 81.79ZM83.1085 69.7517C83.5423 69.374 84.0826 70.0822 83.6526 70.4566C83.304 70.76 82.9553 71.0636 82.6067 71.3671C82.1731 71.7446 81.6328 71.0366 82.0627 70.6622C82.4113 70.3587 82.7599 70.0552 83.1085 69.7517ZM64.5915 92.4243C64.5829 92.9959 63.7012 92.8656 63.7097 92.2996C63.723 91.4247 63.7652 90.5577 63.8902 89.6911C63.9721 89.124 64.8537 89.2481 64.7718 89.8159C64.6468 90.6825 64.6047 91.5496 64.5915 92.4243ZM62.8012 102.937C62.2314 102.999 62.1173 102.116 62.6872 102.055C63.2029 101.999 63.726 102.069 64.238 102.129C64.8076 102.196 64.6822 103.077 64.1132 103.011C63.6803 102.96 63.2372 102.891 62.8012 102.937ZM64.2879 123.458C64.1049 123.578 63.9157 123.689 63.73 123.805C63.3581 124.037 62.9865 124.269 62.615 124.501C61.8411 124.985 61.0678 125.47 60.2954 125.956C58.7493 126.929 57.1869 127.877 55.6357 128.843C54.0539 129.828 52.4778 130.822 50.9043 131.821C50.163 132.291 49.414 132.748 48.667 133.209C48.0283 133.603 47.259 134.247 46.5209 134.394C46.483 134.402 46.4639 134.355 46.4825 134.327C46.7226 133.971 47.1473 133.727 47.4902 133.471C47.8404 133.21 48.1993 132.96 48.5561 132.708C49.2999 132.182 50.0451 131.659 50.7985 131.147C52.3056 130.123 53.8165 129.105 55.3279 128.087C56.8693 127.049 58.408 126.006 59.9676 124.996C60.702 124.52 61.4372 124.045 62.173 123.572C62.5717 123.315 62.9706 123.059 63.3695 122.803C63.5418 122.692 63.7114 122.575 63.889 122.473C64.125 122.338 64.3172 122.335 64.5661 122.238C64.9722 122.08 65.2225 122.59 64.9306 122.864C64.6902 123.089 64.5718 123.271 64.2879 123.458ZM59.5623 133.272C59.4433 133.063 59.5984 132.771 59.8005 132.689C60.0426 132.591 60.2633 132.717 60.3834 132.927C60.7014 133.485 61.1159 133.98 61.6186 134.379C62.0679 134.736 61.5245 135.441 61.0749 135.084C60.4449 134.584 59.9591 133.967 59.5623 133.272ZM53.3969 119.659C52.9424 119.309 53.4863 118.604 53.9406 118.954L55.2325 119.951C55.687 120.301 55.143 121.006 54.6888 120.656L53.3969 119.659ZM41.4169 119.309C40.6254 119.656 39.6945 120.002 39.2242 120.776C39.2013 120.814 39.1496 120.776 39.1616 120.74C39.6875 119.159 41.6792 118.371 43.0376 117.665C43.9984 117.166 44.9935 116.727 46.0016 116.319C45.7437 115.142 45.8667 113.829 45.8138 112.632C45.7573 111.353 45.6805 110.074 45.5614 108.8C45.44 107.5 45.2829 106.196 45.0732 104.907C44.8644 103.623 44.5326 102.371 44.2934 101.095C44.2703 100.972 44.4426 100.943 44.4931 101.041C45.0804 102.178 45.436 103.475 45.7393 104.715C46.0518 105.992 46.2667 107.277 46.4163 108.583C46.5701 109.925 46.6647 111.272 46.7301 112.621C46.7611 113.26 46.7839 113.9 46.81 114.54C46.83 115.028 46.8721 115.51 46.834 115.99C47.4434 115.754 48.0552 115.527 48.6656 115.303C50.6121 114.592 52.5711 113.913 54.5044 113.166C55.4535 112.799 56.3824 112.387 57.325 112.006C58.2126 111.646 59.1446 111.23 60.074 111.001C60.4056 110.919 60.5079 111.374 60.3052 111.559C59.6081 112.196 58.6384 112.702 57.7918 113.118C56.9422 113.535 56.0465 113.872 55.1646 114.213C53.3255 114.925 51.4573 115.555 49.5941 116.2C47.7335 116.844 45.8688 117.486 44.0417 118.22C43.1618 118.574 42.2851 118.928 41.4169 119.309ZM33.8604 96.2708C33.4061 96.6229 32.8638 95.9168 33.3164 95.5659C33.9088 95.1071 34.5553 94.7363 35.2083 94.3718C35.7094 94.0921 36.047 94.917 35.5529 95.1929C34.9661 95.5204 34.3926 95.8586 33.8604 96.2708ZM36.314 129.302C35.858 129.652 35.3154 128.946 35.77 128.597C36.4086 128.108 37.13 127.744 37.8001 127.301C38.2768 126.986 38.8221 127.691 38.344 128.006C37.6741 128.449 36.9525 128.813 36.314 129.302ZM33.1102 110.786C33.6452 111.177 34.3087 111.308 34.9391 111.468C35.4888 111.608 35.3696 112.491 34.8143 112.35C34.0289 112.15 33.2329 111.978 32.5665 111.49C32.1029 111.152 32.6478 110.448 33.1102 110.786ZM35.1187 84.8185C35.6691 84.9564 35.5499 85.8396 34.9939 85.7003C34.3773 85.5458 33.7485 85.4488 33.1319 85.2943C32.5816 85.1564 32.7008 84.2734 33.2568 84.4126C33.8734 84.567 34.5021 84.6641 35.1187 84.8185ZM43.123 73.5741C43.6676 73.4084 44.0144 74.2287 43.4676 74.3952C42.7892 74.6018 42.124 74.8269 41.4991 75.1663C40.9944 75.4404 40.6563 74.6158 41.1544 74.3453C41.7795 74.0059 42.4447 73.7807 43.123 73.5741ZM49.3523 97.6321C48.8095 97.447 49.1591 96.6282 49.6994 96.8124C50.2689 97.0065 50.8499 97.1384 51.4502 97.1873C52.0219 97.2341 51.8948 98.1156 51.3254 98.0691C50.6498 98.0138 49.9926 97.8505 49.3523 97.6321ZM50.4769 83.4829C51.0071 83.2615 51.3494 84.0834 50.8215 84.3041C49.8927 84.6921 48.919 84.9573 47.9793 85.3172C47.4438 85.5223 47.1 84.7009 47.6347 84.4962C48.5743 84.1361 49.5482 83.8712 50.4769 83.4829ZM62.2317 77.5712C62.8039 77.6025 62.6756 78.484 62.107 78.453C61.5016 78.4199 60.9023 78.4955 60.3028 78.5725C59.7338 78.6457 59.6208 77.7627 60.1889 77.6896C60.8699 77.602 61.5445 77.5337 62.2317 77.5712ZM102.983 77.0006C101.523 77.0488 100.064 77.1249 98.6068 77.2289C98.5389 77.2342 98.4723 77.2384 98.4044 77.2437C98.3948 77.2293 98.383 77.2161 98.371 77.202C97.8093 76.5699 97.3722 75.9218 96.9698 75.177C96.5854 74.4681 96.2069 73.735 95.6764 73.1191C95.0714 72.4174 94.3108 71.9054 93.4949 71.4819C93.0802 71.8459 92.7049 72.2578 92.3682 72.6866C92.0139 73.1377 91.3089 72.5941 91.6633 72.1428C91.9625 71.7618 92.2881 71.4035 92.6384 71.0725C92.157 70.8588 91.6686 70.6627 91.1916 70.4664C89.4035 69.7312 87.5851 69.0727 85.741 68.494C84.8837 68.2242 84.022 67.9977 83.1541 67.7675C82.687 67.6439 82.2189 67.4674 81.7482 67.3151C81.7397 66.9974 81.6006 66.6586 81.3334 66.4833C81.1362 66.355 80.991 66.3165 80.7653 66.2369C80.7157 66.2264 80.6857 66.2202 80.6717 66.2163C80.6819 66.2173 80.7118 66.2224 80.7611 66.2317C80.8805 66.2692 80.8873 66.2525 80.7819 66.1831C80.7533 66.0051 80.3524 65.6731 80.2482 65.4992C79.8862 64.9029 79.7127 64.2453 79.2245 63.7227C78.5515 63.0028 77.5548 62.8263 76.6966 63.2108C76.4808 62.2681 76.3279 61.2748 75.8582 60.4691C75.8453 60.4473 75.812 60.4414 75.8009 60.4686C75.5082 61.1562 75.568 61.872 75.6345 62.6129C75.6962 63.3085 75.8139 64.0125 75.9932 64.6884C75.9415 64.7399 75.8885 64.7895 75.833 64.8381C75.5725 65.0624 75.2844 65.2466 74.9759 65.3954C74.3885 65.6775 73.7565 65.8488 73.1171 65.9628C71.4664 66.2566 69.733 66.3098 68.0629 66.2359C66.3736 66.1611 63.7849 66.0553 62.2082 65.4184C61.1676 64.9986 60.1868 64.4485 59.1963 63.9211C59.3886 62.8191 59.3255 61.6694 58.8789 60.8171C58.8253 60.7151 58.655 60.7169 58.6394 60.848C58.5421 61.729 58.5923 62.5954 58.4253 63.4753C58.4225 63.488 58.4198 63.5019 58.4169 63.5145C58.3233 63.4673 58.2298 63.4209 58.1363 63.3746C57.9207 63.2689 57.663 63.4021 57.568 63.605C56.0495 66.854 53.0534 67.4157 49.9531 68.3613C46.56 69.396 43.1555 70.4794 39.9687 72.0587C36.9211 73.5697 34.0794 75.5634 31.9732 78.2655C31.4964 78.8773 31.0596 79.5199 30.6548 80.1842C31.1293 80.1828 31.6041 80.2146 32.0796 80.2992C32.6426 80.3993 32.5201 81.2815 31.9547 81.1808C31.3436 81.0721 30.7379 81.0575 30.1321 81.0895C28.7811 83.5458 27.8302 86.256 27.0473 88.9039C25.5452 93.9808 24.8242 99.2742 24.8608 104.564C25.1828 104.31 25.5123 104.065 25.8525 103.832C26.3252 103.51 26.8697 104.214 26.3965 104.537C25.871 104.896 25.3654 105.282 24.8803 105.692C24.9433 108.001 25.1497 110.307 25.4997 112.591C26.3336 118.035 27.7963 123.56 30.1363 128.555C31.2841 131.007 32.6952 133.403 34.5887 135.356C35.4456 136.24 36.3895 137.016 37.4623 137.626C37.9819 137.922 38.5242 138.177 39.0876 138.378C39.8135 138.639 40.7156 138.639 41.3664 139.056C41.5805 139.194 41.7571 139.389 41.9009 139.616C41.895 140.083 41.9467 140.544 42.1318 140.987C42.19 141.126 42.3133 141.229 42.4541 141.268C42.4614 141.307 42.4664 141.346 42.4712 141.383C42.4735 141.401 42.5006 141.402 42.5016 141.384C42.5027 141.349 42.5038 141.314 42.5048 141.278C42.5497 141.287 42.5958 141.288 42.6421 141.282C44.3194 141.072 45.9926 140.814 47.6638 140.541C47.4827 140.16 47.2913 139.784 47.105 139.403C46.8519 138.887 47.6753 138.547 47.926 139.059C48.1439 139.503 48.3685 139.943 48.5756 140.39C50.3656 140.091 52.1532 139.779 53.9404 139.488C57.7414 138.868 61.5524 138.334 65.3604 137.761C71.2741 136.87 77.2139 135.841 83.1854 135.326C83.3346 134.864 83.5095 134.408 83.672 133.95C83.8636 133.41 84.6828 133.759 84.4919 134.298C84.3789 134.616 84.26 134.931 84.1494 135.249C85.3603 135.156 86.5726 135.083 87.7862 135.041C89.8571 134.969 91.9275 135.049 93.9988 134.997C96.1047 134.945 98.1327 134.644 100.15 134.035C100.513 133.925 100.702 133.673 100.757 133.383C100.76 133.381 100.762 133.379 100.764 133.375C100.854 133.238 100.94 133.122 101.031 133.02C101.143 132.925 101.267 132.84 101.415 132.76C101.691 132.613 101.985 132.506 102.286 132.421C102.617 132.327 102.958 132.278 103.291 132.193C103.571 132.12 103.842 132.03 104.111 131.928C104.596 131.744 105.05 131.527 105.496 131.26C105.885 131.027 106.223 130.721 106.538 130.394C107.195 129.769 107.737 129.01 108.196 128.235C108.463 127.782 108.709 127.316 108.925 126.836C109.303 126.004 109.605 125.152 109.912 124.292C110.03 124.034 110.134 123.772 110.226 123.505C109.393 123.373 108.559 123.285 107.706 123.381C107.136 123.445 107.023 122.562 107.592 122.498C108.57 122.387 109.522 122.496 110.474 122.649C110.503 122.525 110.531 122.4 110.555 122.274C110.631 122.007 110.688 121.736 110.729 121.463C110.758 121.339 110.787 121.214 110.816 121.089C110.862 120.663 110.908 120.237 110.955 119.81C111.069 119.122 111.14 118.429 111.168 117.733C111.207 117.273 111.224 116.812 111.216 116.348C111.227 115.221 111.211 114.1 111.075 112.98C110.973 112.292 110.84 111.609 110.676 110.934C110.584 110.472 110.47 110.015 110.338 109.565C110.155 108.893 109.974 108.227 109.729 107.572C109.552 107.13 109.374 106.689 109.197 106.247C108.78 105.333 108.312 104.444 107.793 103.583C107.764 103.528 107.636 103.417 107.569 103.424C107.518 103.43 107.453 103.485 107.484 103.544C107.487 103.549 107.49 103.556 107.493 103.561C107.463 103.512 107.434 103.462 107.404 103.413C107.378 103.367 107.289 103.28 107.229 103.289C107.226 103.289 107.222 103.29 107.218 103.291C107.232 103.278 107.245 103.262 107.257 103.244C107.593 102.724 107.77 102.073 107.984 101.494C108.161 101.015 108.322 100.514 108.32 99.9996C108.319 99.5477 108.187 99.1192 107.861 98.7955C107.49 98.4271 106.867 98.3122 107.123 97.6778C107.414 96.9559 107.893 96.3004 107.242 95.607C106.91 95.2537 106.437 95.0973 106.062 94.8011C105.63 94.4584 105.382 93.9576 105.323 93.421C105.348 93.4313 105.378 93.4208 105.384 93.3861C105.58 92.378 105.211 91.3464 104.762 90.4472C104.517 89.9594 104.12 89.868 103.677 89.8995C105.103 85.9287 106.399 81.9139 107.49 77.8371C107.526 77.7034 107.562 77.5699 107.597 77.4362C107.65 77.2364 107.454 77.0048 107.26 76.9871C105.846 76.8633 104.401 76.9522 102.983 77.0006Z" fill="black"/>
<path fill-rule="evenodd" clip-rule="evenodd" d="M84.1454 34.5502C82.8412 27.7394 79.6091 20.244 72.6181 17.7197C57.4165 13.7847 40.2991 30.8444 41.219 45.8966C41.5276 51.0499 45.084 56.2654 50.4501 57.0166C51.7994 58.3946 53.6624 59.102 55.4868 59.6892C77.3449 67.6738 89.463 57.3259 84.1454 34.5502Z" fill="white"/>
<path fill-rule="evenodd" clip-rule="evenodd" d="M88.2612 29.6777C87.2777 27.7604 86.2553 25.8637 85.1952 23.9877C84.163 22.1619 83.2011 20.2846 81.9911 18.5746C74.7645 8.36128 64.1961 9.72528 58.9181 11.8629C55.9275 11.0079 50.6657 12.0371 47.8579 13.5192C43.3124 15.9187 38.3963 23.6845 36.8126 27.0929C33.3162 34.6183 31.769 44.2336 35.7258 51.8974C36.243 52.899 36.8552 53.8095 37.5241 54.6768C37.2393 55.1891 36.8993 55.6833 36.5155 56.1754C35.3749 57.6378 34.2288 59.0576 33.2875 60.6625C32.3522 62.2575 31.6206 63.9195 31.1473 65.7091C30.2549 69.0839 30.6605 72.7225 32.7823 75.559C34.6284 78.027 37.5458 79.6657 40.5689 79.4678C40.7256 79.4693 40.8823 79.469 41.0392 79.4646C41.5209 80.0678 42.0832 80.6078 42.7039 81.0618C44.6059 82.4545 48.7508 82.7599 51.0609 82.5156C51.1912 82.5953 51.3227 82.6748 51.454 82.7532C53.0065 83.6805 54.6297 84.6087 56.3495 85.1889C57.5145 85.5828 59.0091 85.8443 60.1026 85.3104C60.666 85.59 61.5075 85.4074 61.9852 85.0574C62.7705 84.4825 63.3498 83.555 63.6572 82.6424C64.4024 80.4268 63.8641 78.1771 63.3162 75.9836C62.7117 73.5606 62.1182 71.1351 61.5204 68.7113C61.0525 66.8161 60.5705 64.8901 59.7464 63.1126C59.3201 62.1914 58.8048 61.3199 58.1808 60.5186C58.1846 60.444 58.173 60.3715 58.1432 60.3058C57.9051 59.7822 57.5217 59.5411 57.0633 59.2233C57.0042 59.1827 56.9449 59.1409 56.8867 59.098C56.6512 58.8905 56.4035 58.7014 56.1446 58.5475C56.0423 58.4675 55.941 58.3864 55.8396 58.3052C54.9964 57.623 54.189 56.8958 53.4523 56.1C52.7379 55.3283 52.0771 54.5115 51.4406 53.6747C50.7933 52.8236 50.3126 51.8545 49.6672 51.0099C49.6119 50.9374 49.4951 50.9368 49.4395 51.0101C49.2979 51.2001 49.2173 51.4012 49.2627 51.5962L49.1826 51.6189C49.1132 51.3249 48.8071 51.1176 48.4425 51.2308C47.8966 51.4 47.4422 51.4957 46.9348 51.3727C46.947 50.7978 46.9525 50.2226 46.9566 49.6465C46.9634 48.5864 46.9599 47.5243 46.9376 46.4646C47.2186 46.4946 47.5011 46.5535 47.7813 46.6385C48.1805 46.7586 48.5664 46.94 48.907 47.1799C49.2428 47.417 49.4983 47.7622 49.8895 47.9069C50.3394 48.0721 50.8013 47.6434 50.6162 47.1826C50.2413 46.2514 48.7519 45.8827 47.851 45.8138C47.5416 45.7898 47.2303 45.803 46.9232 45.8494C46.9062 45.1694 46.8814 44.4904 46.8454 43.8118C46.8286 43.4908 46.8097 43.1701 46.7895 42.8485C47.4449 42.554 48.1675 42.3979 48.8897 42.4035C49.1477 42.5598 49.4055 42.7139 49.6558 42.8712C50.4509 43.3722 51.2431 43.877 52.0279 44.3939C52.0989 44.4398 52.1688 44.4857 52.2399 44.5326C52.7059 44.8394 53.1828 44.4143 53.0462 43.9124C51.9297 39.7996 54.0647 36.1379 56.7346 33.17C59.69 29.8837 65.6905 28.771 69.0049 23.3115C70.8734 23.4471 75.0804 24.023 77.1029 26.4795C79.9348 29.9221 80.0612 33.3178 80.7884 37.5437C81.516 41.7729 82.5431 46.1497 82.1186 50.467C81.7269 54.4479 79.7418 58.0623 76.1965 60.0638C76.1087 60.1133 76.0196 60.1618 75.9303 60.2092C74.0898 61.1884 72.0052 61.6673 69.9206 61.5459C67.6131 61.4106 65.5995 60.6225 63.5619 59.5963C63.4444 59.5385 63.3057 59.7068 63.4013 59.8044C66.2937 62.759 71.2864 63.2265 75.0232 61.8657C75.1979 61.8016 75.3709 61.7344 75.5424 61.6629C75.001 64.2495 75.525 66.9442 76.9574 69.2098C77.8188 70.5729 79.0094 71.695 80.3897 72.5233C81.9111 73.4355 83.7376 74.0951 84.8931 75.5022C85.9515 76.7917 85.8945 78.4013 84.497 79.4052C84.145 79.6593 84.0849 80.3414 84.4977 80.5843C84.6554 80.6762 84.8134 80.7702 84.9745 80.8616C85.8973 81.3877 88.361 82.2815 88.7409 82.2773C92.1136 82.2426 94.0326 79.5153 95.0926 76.4534C96.3376 72.8594 95.3694 68.8003 93.1025 65.8234C91.284 63.4348 88.0301 61.2697 88.7718 57.8539C89.0362 56.6338 89.7566 55.5299 90.465 54.5252C91.2733 53.3808 92.1606 52.2923 92.9255 51.1165C93.6859 49.9491 94.3328 48.7021 94.6061 47.3249C95.0049 45.3121 94.4135 43.2679 93.6782 41.4048C92.1017 37.4053 90.2211 33.501 88.2612 29.6777Z" fill="black"/>
</g>
<path fill-rule="evenodd" clip-rule="evenodd" d="M71.0183 56.7148C70.2373 56.5079 69.5102 56.0885 68.943 55.506C68.7458 55.3036 68.6716 55.0724 68.679 54.8513C68.6873 54.6027 68.8028 54.3635 68.9802 54.1901C69.1581 54.0162 69.3951 53.9112 69.6382 53.9177C69.8495 53.9234 70.0702 54.0102 70.2637 54.2243L70.3039 54.2669C70.6418 54.619 71.058 54.89 71.5117 55.0407C71.9491 55.186 72.4216 55.2192 72.8911 55.1038C73.7855 54.8841 74.3477 54.3126 74.9266 53.5602C74.9982 53.4654 75.0694 53.368 75.1409 53.2691C75.1829 53.1824 75.2489 53.1216 75.3261 53.0843C75.4118 53.0428 75.5133 53.0314 75.6102 53.0518C75.7037 53.0715 75.7913 53.1203 75.8551 53.1921C75.9157 53.2604 75.9566 53.3491 75.9609 53.4567C75.9892 54.1553 75.7076 54.8184 75.2571 55.3687C74.7568 55.9799 74.0495 56.4493 73.3554 56.6715C72.5906 56.9163 71.7791 56.9164 71.0183 56.7148ZM62.0199 42.3052C61.9644 41.1503 63.6716 40.6661 63.9908 41.7748C64.2766 42.7679 64.2142 43.7221 63.8756 44.6932C63.552 45.6209 62.4035 45.3558 62.2183 44.573C61.9699 43.5236 62.0543 43.0235 62.0199 42.3052ZM75.205 40.089C75.4067 39.7398 75.7291 39.4776 76.1647 39.546C77.5259 39.76 77.3796 41.6721 77.0359 42.6379C76.8492 43.1624 76.0562 43.3917 75.6346 43.0055C74.9475 42.3756 74.4799 41.001 75.1477 40.2071C75.1636 40.1685 75.1817 40.1292 75.205 40.089ZM62.878 37.1097L63.0805 37.0467C63.7072 36.8531 64.4904 36.6437 65.0103 37.1005C65.2861 37.3427 65.4344 37.8399 65.1449 38.1432C64.6357 38.6768 63.9841 38.5796 63.3077 38.7065C62.7503 38.8112 62.2227 38.9738 61.7017 39.1982C60.5589 39.6905 59.6719 40.4344 58.7462 41.245C58.6247 41.3514 58.467 41.1988 58.5144 41.0663C58.9516 39.8449 59.9638 38.7573 61.0254 38.0369C61.592 37.6524 62.2225 37.3128 62.878 37.1097ZM73.363 35.2346L73.5257 35.2466C75.2981 35.3846 77.6332 35.8158 78.6693 37.4054C78.7313 37.6411 78.7051 37.6967 78.6826 37.7337L78.6752 37.7461C78.6568 37.7776 78.6443 37.8194 78.5446 37.8654C78.5149 37.8622 78.4849 37.8587 78.4544 37.8548C78.0672 37.805 77.7533 37.708 77.4483 37.6047L77.1174 37.4916C76.7336 37.3612 76.3475 37.2376 75.9453 37.1616C75.0871 36.9992 74.2156 36.9193 73.3424 36.9293C73.1531 36.9315 72.9654 36.8917 72.8099 36.8022C72.6622 36.7172 72.5412 36.5887 72.4701 36.4064C72.3779 36.1704 72.3715 35.9836 72.474 35.7467C72.551 35.5689 72.677 35.4362 72.8301 35.3496C72.9862 35.2613 73.1717 35.2213 73.363 35.2346Z" fill="black"/>
</svg>
