<svg width="71" height="61" viewBox="0 0 71 61" fill="none" xmlns="http://www.w3.org/2000/svg">
<path d="M64.613 39.5704C65.3814 39.4493 65.3817 39.4493 65.3816 39.4488L65.3809 39.4476C65.3808 39.4465 65.3803 39.4451 65.3801 39.4433C65.3795 39.4398 65.379 39.4348 65.3779 39.4286C65.3759 39.416 65.3731 39.3979 65.3691 39.3747C65.3612 39.3279 65.3486 39.2597 65.3325 39.1718C65.3002 38.9956 65.2513 38.7389 65.1821 38.4126C65.0436 37.7602 64.8254 36.8272 64.5053 35.6936C63.8655 33.4278 62.8158 30.3511 61.1731 27.1131C57.8935 20.6482 52.1996 13.4429 42.6081 10.8729C33.0166 8.30288 24.4828 11.6958 18.4102 15.6548C15.3686 17.6376 12.9211 19.7773 11.2341 21.4197C10.3902 22.2413 9.73461 22.9403 9.28855 23.436C9.06544 23.6839 8.89471 23.8818 8.77869 24.0182C8.72077 24.0863 8.67577 24.1391 8.64552 24.1756C8.63051 24.1937 8.61898 24.2081 8.61093 24.2179C8.60695 24.2228 8.60398 24.2269 8.60173 24.2296C8.60063 24.231 8.59951 24.232 8.59884 24.2329L8.59764 24.2336C8.59738 24.234 8.60227 24.2379 9.20246 24.7232M64.613 39.5704L65.2176 40.061L65.2164 40.0617C65.2157 40.0625 65.2146 40.0636 65.2135 40.0649C65.2112 40.0677 65.2083 40.0718 65.2043 40.0766C65.1962 40.0865 65.1848 40.1007 65.1697 40.1189C65.1394 40.1555 65.0945 40.2082 65.0365 40.2763C64.9205 40.4127 64.7498 40.6106 64.5267 40.8586C64.0806 41.3543 63.425 42.0533 62.5811 42.8749C60.8941 44.5173 58.4466 46.6569 55.4051 48.6398C49.3324 52.5987 40.7989 55.9908 31.2074 53.4208C21.616 50.8507 15.9217 43.6463 12.6421 37.1815C10.9994 33.9435 9.9497 30.8668 9.30992 28.6009C8.98987 27.4674 8.7716 26.5343 8.63316 25.8819C8.56392 25.5557 8.515 25.2989 8.48272 25.1228C8.46659 25.0348 8.45405 24.9666 8.4461 24.9199C8.44214 24.8966 8.43935 24.8785 8.43729 24.866C8.43627 24.8597 8.43574 24.8548 8.43517 24.8512C8.43489 24.8495 8.43447 24.848 8.43429 24.847L8.4336 24.8458L9.20246 24.7232M64.613 39.5704L65.2178 40.06C65.3562 39.8889 65.4157 39.6671 65.3814 39.4497L64.613 39.5704ZM9.20246 24.7232L8.43386 24.8448C8.39958 24.6275 8.45905 24.4056 8.59739 24.2345L9.20246 24.7232Z" fill="#B3B3B3" stroke="#B3B3B3" stroke-width="1.55568" stroke-linejoin="round"/>
<path d="M62.2082 35.4065C62.9765 35.2853 62.9769 35.2853 62.9768 35.2849L62.9761 35.2837C62.9759 35.2826 62.9755 35.2812 62.9752 35.2794C62.9746 35.2758 62.9741 35.2709 62.9731 35.2647C62.971 35.2521 62.9682 35.234 62.9643 35.2107C62.9563 35.164 62.9438 35.0958 62.9277 35.0078C62.8954 34.8317 62.8465 34.575 62.7772 34.2487C62.6388 33.5963 62.4205 32.6632 62.1005 31.5297C61.4607 29.2638 60.4109 26.1871 58.7683 22.9491C55.4886 16.4843 49.7947 9.27895 40.2032 6.70892C30.6117 4.13894 22.078 7.53189 16.0053 11.4908C12.9638 13.4737 10.5163 15.6133 8.82928 17.2557C7.98534 18.0774 7.32976 18.7763 6.8837 19.2721C6.6606 19.52 6.48986 19.7179 6.37384 19.8543C6.31593 19.9223 6.27093 19.9752 6.24067 20.0117C6.22566 20.0298 6.21413 20.0442 6.20609 20.054C6.20211 20.0588 6.19913 20.0629 6.19689 20.0657C6.19579 20.067 6.19466 20.0681 6.19399 20.0689L6.19279 20.0696C6.19254 20.07 6.19743 20.0739 6.79762 20.5593M62.2082 35.4065L62.8127 35.897L62.8115 35.8977C62.8109 35.8986 62.8097 35.8997 62.8087 35.901C62.8064 35.9038 62.8034 35.9078 62.7995 35.9127C62.7914 35.9226 62.7799 35.9368 62.7649 35.955C62.7346 35.9915 62.6897 36.0442 62.6317 36.1124C62.5157 36.2488 62.3449 36.4467 62.1218 36.6946C61.6757 37.1904 61.0202 37.8893 60.1763 38.7109C58.4893 40.3534 56.0418 42.493 53.0002 44.4759C46.9275 48.4347 38.394 51.8268 28.8026 49.2568C19.2111 46.6867 13.5169 39.4824 10.2372 33.0176C8.5946 29.7795 7.54485 26.7028 6.90507 24.437C6.58503 23.3035 6.36675 22.3704 6.22831 21.718C6.15907 21.3917 6.11016 21.135 6.07787 20.9589C6.06174 20.8709 6.04921 20.8027 6.04125 20.7559C6.03729 20.7327 6.0345 20.7146 6.03244 20.702C6.03142 20.6958 6.03089 20.6908 6.03032 20.6873C6.03004 20.6855 6.02962 20.6841 6.02945 20.683L6.02876 20.6818L6.79762 20.5593M62.2082 35.4065L62.813 35.8961C62.9514 35.725 63.0108 35.5032 62.9765 35.2858L62.2082 35.4065ZM6.79762 20.5593L6.02901 20.6809C5.99474 20.4635 6.05421 20.2417 6.19254 20.0706L6.79762 20.5593Z" fill="#44E2F8" stroke="black" stroke-width="1.55568" stroke-linejoin="round"/>
<path d="M37.4554 13.5516C44.624 15.153 48.902 22.772 47.1867 30.4509C45.4712 38.1298 38.3576 43.2038 31.1889 41.6023C24.0204 40.0007 19.7422 32.3819 21.4576 24.703C23.1732 17.0243 30.2869 11.9503 37.4554 13.5516Z" fill="white" stroke="black" stroke-width="1.55568" stroke-linecap="round" stroke-linejoin="round"/>
<path d="M36.2653 18.4761C40.8394 19.4981 43.6589 24.1293 42.6192 28.7832C41.5794 33.4369 37.0573 36.4272 32.4833 35.4055C27.9092 34.3836 25.0888 29.7529 26.1282 25.0991C27.1679 20.4452 31.6911 17.4542 36.2653 18.4761Z" fill="#FC75FF" stroke="black" stroke-width="1.55568" stroke-linecap="round" stroke-linejoin="round"/>
<ellipse cx="34.0585" cy="26.1995" rx="3.81325" ry="3.92484" transform="rotate(12.5931 34.0585 26.1995)" fill="black"/>
</svg>
