<svg width="49" height="49" viewBox="0 0 49 49" fill="none" xmlns="http://www.w3.org/2000/svg">
<path d="M24.4778 49.0034C26.0743 49.0034 27.3824 47.8284 27.6041 46.1654C29.799 31.3545 31.8167 29.2926 46.0513 27.6741C47.6918 27.4745 48.9557 26.1 48.9557 24.5035C48.9557 22.8848 47.7141 21.5546 46.0733 21.3107C31.9276 19.3374 30.1761 17.608 27.6041 2.81938C27.3158 1.17863 26.052 0.00341797 24.4778 0.00341797C22.8594 0.00341797 21.5732 1.17863 21.3073 2.84143C19.1566 17.6302 17.139 19.6922 2.92667 21.3107C1.24159 21.5325 0 22.8628 0 24.5035C0 26.1 1.19726 27.4302 2.88234 27.6741C17.0501 29.6917 18.7795 31.3989 21.3073 46.1877C21.6398 47.8505 22.9257 49.0034 24.4778 49.0034Z" fill="#0C0C0C"/>
</svg>
